<?xml version="1.0" standalone="no"?>
<!DOCTYPE svg PUBLIC "-//W3C//DTD SVG 1.1//EN" "http://www.w3.org/Graphics/SVG/1.1/DTD/svg11.dtd">
<svg width="400" height="350" version="1.1" xmlns="http://www.w3.org/2000/svg">

<title>
08105_01
</title>

<defs>
<radialGradient id="urbain" gradientUnits="userSpaceOnUse" cx="200" cy="330" r="150">
<stop offset="0%" style="stop-color:#c380ba; stop-opacity:1"/>
<stop offset="100%" style="stop-color:#860075; stop-opacity:1"/> </radialGradient>
<radialGradient id="patrimoine" gradientUnits="userSpaceOnUse" cx="200" cy="330" r="150">
<stop offset="0%" style="stop-color:#ffbc80; stop-opacity:1"/>
<stop offset="100%" style="stop-color:#ff7901; stop-opacity:1"/> </radialGradient>
<radialGradient id="economie" gradientUnits="userSpaceOnUse" cx="200" cy="330" r="150">
<stop offset="0%" style="stop-color:#90a0d9; stop-opacity:1"/>
<stop offset="100%" style="stop-color:#2140b3; stop-opacity:1"/> </radialGradient>
<radialGradient id="environnement" gradientUnits="userSpaceOnUse" cx="200" cy="330" r="150">
<stop offset="0%" style="stop-color:#a7cf80; stop-opacity:1"/>
<stop offset="100%" style="stop-color:#4e9e00; stop-opacity:1"/> </radialGradient>
<linearGradient x1="52" y1="95" x2="348" y2="95" id="potmut" gradientUnits="userSpaceOnUse">
<stop offset="0%" style="stop-color:#8a8080; stop-opacity:1"/>
<stop offset="100%" style="stop-color:#140000 stop-opacity:1"/> </linearGradient>
</defs>

<path style="fill:#2140b3" d="m 269.63899,140.78648 c -8.28324,0 -15,6.7167 -15,15 0,8.2832 6.71676,15 15,15 8.28324,0 15.00001,-6.7168 15.00001,-15 0,-8.2833 -6.71677,-15 -15.00001,-15 z m -2.5,5.1918 c 0.49413,10e-4 0.9895,0.053 1.48148,0.1587 l 0.086,0.013 0.0728,1.0847 c 0.48458,0.1301 0.95269,0.3295 1.3955,0.582 l 0.83334,-0.6879 0.0794,0.04 c 0.13495,0.089 0.26956,0.1868 0.40344,0.2844 0.40059,0.302 0.75767,0.6467 1.07804,1.0119 l 0.0661,0.073 -0.58201,0.9193 c 0.3061,0.409 0.56182,0.8529 0.75397,1.303 l 1.08466,-0.073 0.0331,0.093 c 0.21681,0.6256 0.35438,1.2774 0.40344,1.9378 l 0,0.093 -1.0119,0.41 c -10e-4,0.4726 -0.0576,0.9456 -0.15873,1.4154 l 0.90608,0.5688 -0.0331,0.099 c -0.18402,0.6327 -0.46188,1.2495 -0.83994,1.832 l -0.0463,0.073 -1.07143,-0.2646 c -0.01,0.01 -0.0154,0.023 -0.0264,0.04 -0.25869,0.3421 -0.5524,0.6474 -0.8664,0.9193 l 0.41005,0.9987 -0.0794,0.053 c -0.5504,0.4257 -1.15346,0.7669 -1.79232,1.0185 l -0.086,0.026 -0.70768,-0.8399 c -0.37664,0.1099 -0.7822,0.1964 -1.17724,0.2315 l -0.25794,1.0648 -0.0926,-0.01 c -0.69407,0.027 -1.40472,-0.038 -2.08334,-0.2183 l -0.086,-0.02 -0.0727,-1.0978 c -0.35906,-0.1153 -0.71233,-0.2649 -1.04497,-0.4498 l -0.83995,0.7011 -0.0727,-0.053 c -0.16078,-0.1009 -0.32415,-0.2119 -0.4828,-0.3307 -0.41746,-0.3131 -0.78284,-0.6698 -1.11111,-1.045 l -0.0529,-0.066 0.58201,-0.9325 c -0.23604,-0.3098 -0.43282,-0.6341 -0.60186,-0.9722 l -1.09127,0.073 -0.0397,-0.079 c -0.26741,-0.659 -0.43093,-1.3311 -0.50264,-2.0305 l -0.007,-0.093 0.99868,-0.3968 c -0.015,-0.4108 0.0202,-0.8156 0.086,-1.2169 l -0.93915,-0.5953 0.0198,-0.086 c 0.15925,-0.6538 0.40302,-1.3001 0.74735,-1.9047 l 0.0595,-0.086 1.03836,0.2645 c 0.0776,-0.118 0.16474,-0.2467 0.25133,-0.3637 0.18319,-0.242 0.38598,-0.4638 0.60185,-0.6746 l -0.41666,-1.0119 0.0727,-0.066 c 0.52457,-0.4379 1.09355,-0.7953 1.69974,-1.0781 l 0.086,-0.04 0.68783,0.8267 c 0.44789,-0.1742 0.92875,-0.2892 1.40873,-0.3505 l 0.26455,-1.0582 0.086,-0.01 c 0.16482,-0.01 0.33132,-0.014 0.49603,-0.013 z m -0.17196,3.7698 c -0.99942,0.039 -1.97176,0.5041 -2.62566,1.3625 -1.16356,1.5348 -0.87008,3.7028 0.65476,4.8743 1.52697,1.1535 3.71185,0.8579 4.87434,-0.668 1.1625,-1.5259 0.86347,-3.6963 -0.66137,-4.8677 -0.67197,-0.5052 -1.46474,-0.7311 -2.24207,-0.7011 z m 8.09524,7.209 c 0.14741,0 0.29752,0.01 0.44312,0.02 l 0.0661,0.01 0.13889,0.6349 c 0.28939,0.042 0.56075,0.1292 0.82672,0.2381 l 0.43651,-0.4762 0.0595,0.033 c 0.35805,0.1819 0.68512,0.4075 0.97884,0.6746 l 0.0529,0.046 -0.27117,0.5953 c 0.194,0.1934 0.36082,0.4133 0.50265,0.6547 l 0.62831,-0.1388 0.0265,0.066 c 0.18264,0.3547 0.32073,0.74 0.39682,1.1441 l 0.0132,0.06 -0.57539,0.3307 c 0.007,0.01 0.008,0.01 0.007,0.013 0.0245,0.2508 0.027,0.4964 0.007,0.7342 l 0.58863,0.2645 -0.007,0.079 c -0.0641,0.4107 -0.18865,0.804 -0.36375,1.1706 l -0.0265,0.06 -0.65477,-0.066 c -0.10846,0.1964 -0.23772,0.3866 -0.39021,0.5622 l 0.31746,0.5622 -0.0463,0.053 c -0.291,0.2986 -0.62036,0.5559 -0.98545,0.7606 l -0.0595,0.033 -0.4828,-0.4431 c -0.19691,0.093 -0.39886,0.1718 -0.61507,0.2314 l -0.0661,0.6416 -0.0728,0.013 c -0.11058,0.018 -0.21909,0.036 -0.33731,0.053 -0.30608,0.034 -0.61385,0.041 -0.91269,0.013 l -0.0661,-0.013 -0.13227,-0.6349 c -0.213,-0.033 -0.43498,-0.087 -0.63492,-0.1654 l -0.44312,0.4828 -0.0595,-0.026 c -0.38278,-0.1693 -0.73495,-0.3915 -1.05159,-0.6613 l -0.0529,-0.046 0.27116,-0.5887 c -0.16615,-0.1668 -0.32437,-0.3419 -0.45635,-0.5357 l -0.64153,0.1257 -0.0331,-0.06 c -0.20737,-0.3422 -0.36396,-0.7242 -0.46296,-1.131 l -0.0265,-0.073 0.55556,-0.3108 c -0.0139,-0.079 -0.0201,-0.158 -0.0331,-0.2447 -0.0174,-0.1803 -0.0245,-0.3526 -0.0198,-0.5225 l -0.59524,-0.2712 0.007,-0.073 c 0.003,-0.023 0.004,-0.043 0.007,-0.066 0.0452,-0.3819 0.14448,-0.7507 0.27778,-1.0912 l 0.0331,-0.066 0.63493,0.066 c 0.12243,-0.2489 0.26331,-0.4815 0.4365,-0.7011 l -0.31746,-0.5688 0.0529,-0.046 c 0.25955,-0.2946 0.56494,-0.5457 0.89947,-0.754 l 0.0661,-0.04 0.47619,0.4366 c 0.24909,-0.141 0.52581,-0.2497 0.81349,-0.3241 l 0.0728,-0.6283 0.0661,-0.02 c 0.0953,-0.02 0.18898,-0.029 0.29101,-0.04 0.14922,-0.017 0.29571,-0.031 0.44312,-0.033 z m 0.0529,2.3876 c -0.0754,-0.001 -0.15048,-1e-4 -0.22487,0.01 -0.9106,0.1013 -1.60321,0.8222 -1.70635,1.6931 l 0,0.01 c -0.0172,0.1452 -0.0147,0.2935 0.007,0.4431 0.10131,0.9106 0.81561,1.6032 1.6865,1.7064 0.15279,0.018 0.30007,0.021 0.44974,0 0.9106,-0.1013 1.5966,-0.8222 1.69974,-1.6931 0.0172,-0.1452 0.02,-0.2944 0.007,-0.4432 -0.10132,-0.9106 -0.82223,-1.6032 -1.69312,-1.7063 -0.0726,-0.01 -0.14948,-0.012 -0.22487,-0.013 z" />
<path style="fill:#ff7901" d="m 130.36431,140.78648 c -8.28506,0 -15.00331,6.7182 -15.00331,15.0033 0,8.2851 6.71825,14.9967 15.00331,14.9967 8.28506,0 14.99669,-6.7116 14.99669,-14.9967 0,-8.2851 -6.71163,-15.0033 -14.99669,-15.0033 z m -7.50166,4.8754 3.00331,0 0,2.9967 2.99669,0.01 0,-3.0033 2.9967,0 0,3.0033 3.0033,0 0,-3.0033 2.9967,0 0,3.0033 -2.9967,2.9967 0,9.7508 2.24918,2.2492 0,0.01 0,1.118 c 0,0.6374 -0.48896,1.1227 -1.12459,1.1245 l -11.25248,0 c -0.63751,0 -1.12459,-0.4871 -1.12459,-1.1245 l 0,-1.1246 2.25579,-2.2558 0,-9.7442 -3.00331,-2.9967 0,-0.01 0,-2.9967 z m 7.50166,7.3098 c -1.06314,0 -1.87872,0.8156 -1.87872,1.8787 l 0,3.7509 3.75082,0 0,-3.7509 c 0,-1.0631 -0.80897,-1.8787 -1.8721,-1.8787 z" />
<path style="fill:#4e9e00" d="m 363.63732,218.81014 c -8.28324,0 -15,6.7168 -15,15 0,8.2832 6.71676,14.9934 15,14.9934 8.28324,0 15,-6.7102 15,-14.9934 0,-8.2832 -6.71676,-15 -15,-15 z m 1.2037,7.0172 c 5.23583,-0.01 8.90212,3.0622 8.90212,3.0622 -5.90017,2.3976 -4.81742,6.814 -9.4709,10.0661 -3.0055,2.0991 -6.23401,0.021 -7.46032,-1.3161 -1.22721,1.3078 -2.17592,4.1468 -2.17592,4.1468 l -1.09789,-0.8664 c 0.14565,-0.8328 2.23819,-3.4875 2.66535,-4.0212 -0.003,0 -0.004,-0.01 -0.007,-0.013 0.49788,-0.6107 1.49864,-1.7968 2.07011,-2.1561 0,0 1.0176,1.4522 6.02513,2.3744 0,0 0.52632,-0.2387 0.086,-0.4233 0,0 -2.95497,-0.8578 -4.94047,-3.0291 0,0 0.74994,-0.6638 0.95899,-0.7606 0,0 1.29453,1.0959 5.93915,2.0238 0,0 0.59154,-0.2331 0.0926,-0.4696 0,0 -2.52937,-0.1035 -4.80821,-2.3941 0,0 0.94701,-0.537 1.27646,-0.7077 0,0 1.00553,0.5737 5.16534,0.9458 0,0 0.7215,-0.2898 0.0529,-0.4101 0,0 -1.68157,0.01 -4.10053,-1.3889 0,0 1.56565,-1.4481 5.79366,-1.6997 0,0 0.871,-0.186 0.21825,-0.4035 0,0 -2.34382,-0.5562 -6.66005,1.3889 0,0 -0.50869,-0.6094 0.31084,-2.6587 0,0 -0.03,-0.3314 -0.27777,-0.1124 0,0 -1.22283,1.7865 -1.18387,3.4523 0,0 -1.04631,0.5836 -1.25,0.7871 0,0 -0.80488,-0.8403 -0.69444,-3.4127 0,0 -0.19298,-0.1971 -0.28439,0.1852 0,0 -0.55228,2.5638 -0.22487,4.0807 0,0 -0.52639,0.3777 -1.03836,0.7738 0,0 -0.91397,-1.0556 -0.89947,-3.3532 0,0 -0.16276,-0.4785 -0.25132,0.1058 0,0 -0.51176,2.3384 0.13227,4.1667 0,0 -1.12567,1.0433 -2.03042,2.0899 l -0.0463,-0.099 c -1.84916,-5.8766 2.47354,-8.1547 2.47354,-8.1547 2.40402,-1.3158 4.69061,-1.7953 6.73941,-1.799 z" />
<path style="fill:#860075" d="m 30.363143,223.34544 0.139578,1.8115 0.591079,-0.039 -0.139578,-1.8115 -0.591079,0.039 z m -2.172904,2.6124 0.139577,1.8114 5.306471,-0.4028 -0.14288,-1.8253 -5.303168,0.4167 z m -1.571282,2.5566 1.185598,15.1489 -0.591077,0.039 0.04192,0.6049 0.591082,-0.039 4.124315,-0.3256 1.76992,-0.1297 -0.94504,-12.117 2.94547,-0.2346 -0.29631,-3.6335 -8.825861,0.6866 z m 1.262664,1.1188 1.76662,-0.1435 0.100974,1.2204 -1.769925,0.1296 -0.09767,-1.2065 z m 2.357695,-0.1821 1.769931,-0.1297 0.0977,1.2066 -1.769934,0.1296 -0.09767,-1.2065 z m 2.357701,-0.1821 1.76992,-0.1297 0.0977,1.2065 -1.76992,0.1297 -0.0977,-1.2065 z m -4.516754,2.7911 1.766621,-0.1435 0.09767,1.2066 -1.766618,0.1435 -0.09767,-1.2066 z m 8.154274,-1.8439 0.0977,1.2065 5.29262,-0.3995 -0.0871,-1.2237 -5.30316,0.4167 z m -5.796576,1.6618 1.766616,-0.1435 0.0871,1.2237 -1.76992,0.1297 -0.08382,-1.2099 z m 2.987376,0.3704 0.90314,11.5121 4.12762,-0.3118 -0.19864,-2.427 2.94877,-0.2207 0.18479,2.4303 3.53655,-0.2732 0.58777,-0.052 0.59107,-0.039 -0.0419,-0.6049 -0.59107,0.039 -0.84738,-10.9105 -11.20071,0.8581 z m -5.163589,2.2281 1.769925,-0.1296 0.09767,1.2065 -1.766619,0.1435 -0.100976,-1.2204 z m 2.357694,-0.1821 1.769925,-0.1296 0.0977,1.2065 -1.766617,0.1435 -0.100978,-1.2204 z m 4.715395,-0.3642 1.76993,-0.1296 0.0977,1.2065 -1.76661,0.1435 -0.10098,-1.2204 z m 2.94878,-0.2207 1.76992,-0.1297 0.0977,1.2066 -1.76993,0.1297 -0.0977,-1.2066 z m 2.94877,-0.2207 1.76662,-0.1435 0.0838,1.2098 -1.75276,0.1402 -0.0977,-1.2065 z m -12.771994,3.4147 1.766619,-0.1435 0.08712,1.2237 -1.769931,0.1297 -0.08381,-1.2099 z m 2.357698,-0.1821 1.766616,-0.1435 0.0871,1.2237 -1.769922,0.1296 -0.08381,-1.2098 z m 4.701536,-0.3609 1.76993,-0.1297 0.0977,1.2066 -1.76992,0.1296 -0.0977,-1.2065 z m 2.94877,-0.2207 1.76662,-0.1435 0.10098,1.2204 -1.76993,0.1296 -0.0977,-1.2065 z m 2.94547,-0.2346 1.76993,-0.1297 0.0977,1.2066 -1.76662,0.1435 -0.10098,-1.2204 z m -12.771991,3.4147 1.769925,-0.1296 0.09767,1.2065 -1.766621,0.1435 -0.100974,-1.2204 z m 2.361002,-0.1682 1.766619,-0.1436 0.0977,1.2066 -1.766619,0.1435 -0.09767,-1.2065 z m 4.715389,-0.3643 1.79763,-0.1362 0.0944,1.1927 -1.79764,0.1362 -0.0944,-1.1927 z m 2.94547,-0.2345 1.76993,-0.1297 0.0944,1.1927 -1.76993,0.1297 -0.0944,-1.1927 z m 2.94878,-0.2207 1.76662,-0.1436 0.0805,1.1961 -1.76662,0.1435 -0.0805,-1.196 z m 9.75017,-4.5254 c 0,8.2843 -6.71573,15 -15,15 -8.284276,0 -15.000005,-6.7157 -15.000005,-15 0,-8.2843 6.715729,-15 15.000005,-15 8.28427,0 15,6.7157 15,15 z" />

<path style="fill:#140000" d="m 373.60564,57.5 c -6.90422,0 -12.5,5.595748 -12.5,12.5 0,6.90425 5.59578,12.5 12.5,12.5 6.90422,0 12.5,-5.59575 12.5,-12.5 0,-6.904252 -5.59578,-12.5 -12.5,-12.5 z m -2.23958,4.713542 4.45312,0 0,5.546875 5.52083,0 0,4.479166 -5.52083,0 0,5.546875 -4.45312,0 0,-5.546875 -5.52084,0 0,-4.479166 5.52084,0 0,-5.546875 z" />
<path style="fill:#8a8080" d="m 26.394365,57.5 c -6.904217,0 -12.5,5.59575 -12.5,12.5 0,6.90425 5.595783,12.5 12.5,12.5 6.904215,0 12.499999,-5.59575 12.499999,-12.5 0,-6.90425 -5.595784,-12.5 -12.5,-12.5 z m -5.182291,9.947916 10.364582,0 0,5.104168 -10.364582,0 0,-5.104168 z" />



<g>
<path d="M200,330 l-128.57142857,0 a128.571428571429,128.571428571429 0 0,1 37.65769956,-90.91372901 z"  style=" fill:url(#urbain); " />
<path d="M200,330 l-56.15259733,-56.15259733 a79.4117647058823,79.4117647058823 0 0,1 56.15259733,-23.25916738 z"  style=" fill:url(#patrimoine); " />
<path d="M200,330 l0,-82.89473684 a82.8947368421053,82.8947368421053 0 0,1 58.61543055,24.2793063 z"  style=" fill:url(#economie); " />
<path d="M200,330 l49.71844555,-49.71844555 a70.3125,70.3125 0 0,1 20.59405445,49.71844555 z"  style=" fill:url(#environnement); " />
<path d=" m125,330 a75,75 0 0,1 150,0" style=" fill:none; stroke:#000000; stroke-width:0.5px; stroke-opacity:0.25"/>
<path d="m50,330 a150,150 0 0,1 300,0 z m150,0 l-106.0660172,-106.0660172 m106.0660172,106.0660172 l0,-150 m0,150 106.0660172,-106.0660172" style=" fill:none; stroke:#000000; stroke-width:0.5px"/>
<text x="37" y="265" style="fill:#000000;stroke:none;font-size:16px;font-weight:bold;font-family:Arial;text-anchor:middle;">
86 % </text>
<text  x="130" y="185" style="fill:#000000;stroke:none;font-size:16px;font-weight:bold;font-family:Arial;text-anchor:middle;">
53 % </text>
<text x="270" y="185" style="fill:#000000;stroke:none;font-size:16px;font-weight:bold;font-family:Arial;text-anchor:middle;">
55 % </text>
<text x="363" y="265" style="fill:#000000;stroke:none;font-size:16px;font-weight:bold;font-family:Arial;text-anchor:middle;">
47 % </text>
</g>

<g>
<rect width="213.77777778" height="26" rx="6" x="52" y="57"  style="fill:url(#potmut)" />
<rect width="300" height="30" rx="8" x="50" y="55"  style="fill:none;stroke:#000000;stroke-width:0.5px" />
<path d="m
265.77777778
,53 -3,-6 6,0 z" style=" fill:#000000; stroke:none"/>
<text x="
265.77777778
" y="42" style="fill:#000000;stroke:none;font-size:16px;font-weight:bold;font-family:Arial;text-anchor:middle;">
72 %</text>
</g>

<text x="0" y="20" style="fill:#000000;stroke:none;font-size:14px;font-weight:bold;font-family:Arial;text-anchor:start;">Potentiel de mutabilité :</text>
<text x="0" y="125" style="fill:#000000;stroke:none;font-size:14px;font-weight:bold;font-family:Arial;text-anchor:start;">Indice de mutabilité :</text>
 
</svg>
