<?xml version="1.0" encoding="UTF-8" standalone="no"?>
<!-- Created with Inkscape (http://www.inkscape.org/) -->

<svg
   xmlns:dc="http://purl.org/dc/elements/1.1/"
   xmlns:cc="http://creativecommons.org/ns#"
   xmlns:rdf="http://www.w3.org/1999/02/22-rdf-syntax-ns#"
   xmlns:svg="http://www.w3.org/2000/svg"
   xmlns="http://www.w3.org/2000/svg"
   xmlns:sodipodi="http://sodipodi.sourceforge.net/DTD/sodipodi-0.dtd"
   xmlns:inkscape="http://www.inkscape.org/namespaces/inkscape"
   width="52.000019"
   height="52"
   id="svg3106"
   version="1.1"
   inkscape:version="0.48.5 r10040"
   sodipodi:docname="_economie.svg"
   inkscape:export-filename="T:\18_etudes_et_connaissances\01_animation_pilotage\05_etudes_en_cours\DDT_08\Friches\Observatoire\img\_economie.png"
   inkscape:export-xdpi="89.999969"
   inkscape:export-ydpi="89.999969">
  <defs
     id="defs3108" />
  <sodipodi:namedview
     id="base"
     pagecolor="#ffffff"
     bordercolor="#666666"
     borderopacity="1.0"
     inkscape:pageopacity="0.0"
     inkscape:pageshadow="2"
     inkscape:zoom="2.1062378"
     inkscape:cx="-108.92901"
     inkscape:cy="56.889897"
     inkscape:document-units="px"
     inkscape:current-layer="layer1"
     showgrid="false"
     fit-margin-top="1"
     fit-margin-left="1"
     fit-margin-right="1"
     fit-margin-bottom="1"
     inkscape:window-width="768"
     inkscape:window-height="826"
     inkscape:window-x="25"
     inkscape:window-y="25"
     inkscape:window-maximized="0" />
  <metadata
     id="metadata3111">
    <rdf:RDF>
      <cc:Work
         rdf:about="">
        <dc:format>image/svg+xml</dc:format>
        <dc:type
           rdf:resource="http://purl.org/dc/dcmitype/StillImage" />
        <dc:title></dc:title>
      </cc:Work>
    </rdf:RDF>
  </metadata>
  <g
     inkscape:label="Calque 1"
     inkscape:groupmode="layer"
     id="layer1"
     transform="translate(-483.92901,-537.25208)">
    <path
       inkscape:connector-curvature="0"
       style="fill:#2140b3"
       d="m 509.929,538.25208 c -13.8054,0 -24.99999,11.19449 -24.99999,24.99999 0,13.80535 11.19459,25.00001 24.99999,25.00001 13.80542,0 25.00003,-11.19466 25.00003,-25.00001 0,-13.8055 -11.19461,-24.99999 -25.00003,-24.99999 z m -4.16666,8.65299 c 0.82355,0.002 1.64917,0.0883 2.46913,0.26452 l 0.14328,0.0217 0.12128,1.80784 c 0.80764,0.21683 1.58781,0.54917 2.32584,0.97 l 1.38888,-1.14649 0.13229,0.0666 c 0.22492,0.14827 0.44927,0.31134 0.6724,0.47399 0.66765,0.50334 1.26278,1.07784 1.79674,1.68651 l 0.11012,0.12161 -0.97001,1.53217 c 0.51018,0.68166 0.93638,1.4215 1.25662,2.17168 l 1.80777,-0.12162 0.0551,0.15494 c 0.36136,1.04267 0.59064,2.12901 0.67241,3.22967 l 0,0.15494 -1.68651,0.68333 c -0.002,0.78768 -0.096,1.57602 -0.26454,2.35901 l 1.51014,0.94801 -0.0551,0.16493 c -0.30669,1.05451 -0.7698,2.08252 -1.3999,3.05335 l -0.0771,0.12162 -1.78572,-0.44099 c -0.0167,0.0167 -0.0256,0.0383 -0.044,0.0666 -0.43115,0.57016 -0.92067,1.07899 -1.444,1.53216 l 0.68342,1.6645 -0.13229,0.0883 c -0.91733,0.7095 -1.92242,1.27816 -2.98719,1.69749 l -0.14327,0.0433 -1.17947,-1.39983 c -0.62774,0.18318 -1.30366,0.32734 -1.96206,0.38583 l -0.4299,1.77467 -0.15427,-0.0167 c -1.15678,0.045 -2.3412,-0.0633 -3.47224,-0.36384 l -0.14327,-0.0333 -0.12112,-1.82968 c -0.59843,-0.19216 -1.18722,-0.4415 -1.74162,-0.74966 l -1.39991,1.16849 -0.12112,-0.0883 c -0.26798,-0.16816 -0.54025,-0.35316 -0.80467,-0.55116 -0.69577,-0.52183 -1.30473,-1.11633 -1.85185,-1.74167 l -0.0881,-0.10995 0.97001,-1.55416 c -0.39339,-0.51635 -0.72136,-1.05683 -1.0031,-1.62034 l -1.81878,0.12162 -0.0661,-0.13162 c -0.44569,-1.09833 -0.71821,-2.21849 -0.83773,-3.38417 l -0.0117,-0.15494 1.66446,-0.66134 c -0.025,-0.68466 0.0336,-1.35933 0.14327,-2.02816 l -1.56525,-0.99216 0.033,-0.14328 c 0.26541,-1.08967 0.6717,-2.16683 1.24559,-3.1745 l 0.0991,-0.14328 1.7306,0.44083 c 0.12929,-0.19666 0.27456,-0.41116 0.41889,-0.60616 0.30531,-0.40334 0.64329,-0.773 1.00307,-1.12434 l -0.69443,-1.68649 0.12112,-0.10996 c 0.87427,-0.72983 1.82258,-1.32549 2.8329,-1.79684 l 0.14328,-0.0666 1.14638,1.37782 c 0.74649,-0.29031 1.54793,-0.48199 2.3479,-0.58415 l 0.4409,-1.76367 0.14328,-0.0167 c 0.27471,-0.0167 0.55222,-0.0233 0.82673,-0.0217 z m -0.2866,6.28301 c -1.6657,0.065 -3.28626,0.84017 -4.37609,2.27083 -1.93927,2.55801 -1.45013,6.17133 1.09127,8.12383 2.54494,1.92251 6.18641,1.42984 8.1239,-1.11333 1.93748,-2.54316 1.43911,-6.16051 -1.10229,-8.11284 -1.11995,-0.842 -2.44123,-1.21848 -3.73679,-1.16849 z m 13.49207,12.01501 c 0.24569,0 0.49587,0.0167 0.73853,0.0333 l 0.11012,0.0167 0.23148,1.05816 c 0.48232,0.07 0.93459,0.21534 1.37787,0.39683 l 0.72751,-0.79367 0.0991,0.055 c 0.59675,0.30316 1.14187,0.67916 1.63139,1.12432 l 0.0881,0.0766 -0.45195,0.99216 c 0.32334,0.32234 0.60138,0.68884 0.83775,1.09117 l 1.04719,-0.23133 0.0441,0.10996 c 0.3044,0.59117 0.53456,1.23333 0.66137,1.90683 l 0.022,0.1 -0.95897,0.55117 c 0.0117,0.0167 0.0133,0.0167 0.0117,0.0217 0.0408,0.418 0.045,0.82734 0.0117,1.22367 l 0.98104,0.44084 -0.0117,0.13161 c -0.10679,0.6845 -0.31441,1.33999 -0.60624,1.951 l -0.0441,0.1 -1.09129,-0.10995 c -0.18076,0.32732 -0.39621,0.64433 -0.65036,0.93699 l 0.52911,0.937 -0.0771,0.0883 c -0.48499,0.49767 -1.03393,0.9265 -1.64242,1.26767 l -0.0991,0.055 -0.80466,-0.7385 c -0.32819,0.15494 -0.66477,0.28632 -1.02512,0.38567 l -0.11012,1.06933 -0.12129,0.0217 c -0.18429,0.03 -0.36513,0.06 -0.56217,0.0883 -0.51014,0.0566 -1.02308,0.0683 -1.52116,0.0217 l -0.11012,-0.0217 -0.22046,-1.05816 c -0.355,-0.055 -0.72497,-0.14494 -1.0582,-0.27568 l -0.73853,0.80467 -0.0991,-0.0433 c -0.63798,-0.28215 -1.22491,-0.65249 -1.75266,-1.10216 l -0.0881,-0.0766 0.45194,-0.98116 c -0.27692,-0.27799 -0.54062,-0.56983 -0.76058,-0.89283 l -1.06923,0.2095 -0.0552,-0.1 c -0.34561,-0.57035 -0.60659,-1.20701 -0.77159,-1.88501 l -0.0442,-0.12162 0.92593,-0.518 c -0.0231,-0.13161 -0.0335,-0.26333 -0.0551,-0.40784 -0.029,-0.30049 -0.0408,-0.58767 -0.033,-0.87082 l -0.99207,-0.45201 0.0117,-0.12161 c 0.005,-0.0383 0.007,-0.0716 0.0117,-0.10996 0.0753,-0.6365 0.2408,-1.25118 0.46297,-1.81867 l 0.0551,-0.10996 1.05822,0.10996 c 0.20405,-0.41484 0.43884,-0.8025 0.7275,-1.16851 l -0.5291,-0.94799 0.0881,-0.0766 c 0.43258,-0.491 0.94156,-0.9095 1.49911,-1.25667 l 0.11012,-0.0666 0.79365,0.72767 c 0.41514,-0.23501 0.87634,-0.41617 1.35582,-0.54017 l 0.12129,-1.04718 0.11012,-0.0333 c 0.15877,-0.0333 0.31497,-0.0483 0.48502,-0.0666 0.24869,-0.0283 0.49284,-0.0516 0.73853,-0.055 z m 0.0881,3.97933 c -0.12561,-0.002 -0.2508,-1.7e-4 -0.37478,0.0167 -1.51767,0.16883 -2.67202,1.37033 -2.84392,2.82184 l 0,0.0167 c -0.0287,0.242 -0.0245,0.48917 0.0117,0.73849 0.16885,1.51767 1.35934,2.67202 2.81084,2.84402 0.25465,0.03 0.5001,0.035 0.74955,0 1.51767,-0.16884 2.66101,-1.37035 2.83291,-2.82184 0.0287,-0.24201 0.0333,-0.49068 0.0117,-0.73866 -0.16887,-1.51767 -1.3704,-2.67202 -2.82188,-2.84385 -0.12095,-0.0167 -0.24913,-0.02 -0.37478,-0.0217 z"
       id="path33" />
  </g>
</svg>
